<svg xmlns="http://www.w3.org/2000/svg" viewBox="0 0 512 512">
  <rect width="512" height="512" rx="96" fill="#10151c"/>
  <g stroke="#4ade80" stroke-width="28" stroke-linecap="round">
    <path d="M96 176v-48a32 32 0 0 1 32-32h48" fill="none"/>
    <path d="M416 176v-48a32 32 0 0 0-32-32h-48" fill="none"/>
    <path d="M96 336v48a32 32 0 0 0 32 32h48" fill="none"/>
    <path d="M416 336v48a32 32 0 0 1-32 32h-48" fill="none"/>
  </g>
  <g stroke="#e8edf4" stroke-width="18" stroke-linecap="round">
    <line x1="152" y1="200" x2="152" y2="312"/>
    <line x1="200" y1="200" x2="200" y2="312"/>
    <line x1="248" y1="200" x2="248" y2="312"/>
    <line x1="296" y1="200" x2="296" y2="312"/>
    <line x1="344" y1="200" x2="344" y2="312"/>
  </g>
  <line x1="72" y1="256" x2="440" y2="256" stroke="#4ade80" stroke-width="16" stroke-linecap="round"/>
</svg>
